# xmcd
#
# Track frame offsets: 
#        150
#        16321
#        32548
#        48629
#        65509
#        86172
#        102692
#        123591
#
# Disc length: 1926 seconds
#
# Revision: 1
# Processed by: cddbd v1.5.2PL0 Copyright (c) Steve Scherf et al.
# Submitted via: ExactAudioCopyFreeDBPlugin 1.0
#
DISCID=6d078408
DTITLE=交響アクティブNEETs - 第三次艦隊フィルハーモニー交響楽団
DYEAR=2015
DGENRE=Soundtrack
TTITLE0=海原へ(AL道中)
TTITLE1=士魂の護り
TTITLE2=索敵機、発艦始め！
TTITLE3=秋月の空
TTITLE4=眼下の伊号
TTITLE5=鎮守府の午後
TTITLE6=加賀岬
TTITLE7=加賀岬(カラオケver.)
EXTD=
EXTT0=
EXTT1=
EXTT2=
EXTT3=
EXTT4=
EXTT5=
EXTT6=
EXTT7=
PLAYORDER=
